<?xml version="1.0" encoding="UTF-8"?>
<!DOCTYPE svg  PUBLIC '-//W3C//DTD SVG 1.1//EN'  'http://www.w3.org/Graphics/SVG/1.1/DTD/svg11.dtd'>
<svg version="1.1" xmlns="http://www.w3.org/2000/svg">
<defs>
<font id="Rubik-Bold" horiz-adv-x="0">
<font-face font-family="Rubik" font-weight="700" ascent="800" bbox="-176 -291 711 710" descent="-200" panose-1="0 0 0 0 0 0 0 0 0 0" underline-position="-75" underline-thickness="50" unicode-range="U+0022-05F4" units-per-em="1000"/>
<missing-glyph/>
<glyph d="M301 446q-14 0 -20 8t-8 19l-22 207q-2 14 5 22t19 8h112q12 0 18.5 -8t5.5 -22l-23 -207q-1 -11 -7 -19t-21 -8h-59zM92 446q-15 0 -20.5 8t-7.5 19l-23 207q-1 14 5.5 22t18.5 8h112q12 0 19 -8t5 -22l-22 -207q-1 -11 -7 -19t-21 -8h-59z" glyph-name="quotedbl" horiz-adv-x="452" unicode='"'/>
<glyph d="M-27 -168q-22 0 -22 22v48q0 22 22 22h55q22 0 22 -22v-48q0 -22 -22 -22h-55zM-27 -283q-22 0 -22 22v48q0 22 22 22h55q22 0 22 -22v-48q0 -22 -22 -22h-55z" glyph-name="uni05B0" unicode="ְ"/>
<glyph d="M119 -168q-22 0 -22 22v48q0 22 22 22h55q22 0 22 -22v-48q0 -22 -22 -22h-55zM119 -283q-22 0 -22 22v48q0 22 22 22h55q22 0 22 -22v-48q0 -22 -22 -22h-55zM-14 -168q-22 0 -22 22v48q0 22 22 22h54q22 0 22 -22v-48q0 -22 -22 -22h-54zM-84 -284q-22 0 -22 22v48 q0 22 22 22h54q22 0 22 -22v-48q0 -22 -22 -22h-54zM-151 -168q-22 0 -22 22v48q0 22 22 22h54q22 0 22 -22v-48q0 -22 -22 -22h-54z" glyph-name="uni05B1" unicode="ֱ"/>
<glyph d="M139 -168q-22 0 -22 22v48q0 22 22 22h55q22 0 22 -22v-48q0 -22 -22 -22h-55zM139 -283q-22 0 -22 22v48q0 22 22 22h55q22 0 22 -22v-48q0 -22 -22 -22h-55zM-141 -163q-22 0 -22 22v43q0 22 22 22h208q22 0 22 -22v-43q0 -22 -22 -22h-208z" glyph-name="uni05B2" unicode="ֲ"/>
<glyph d="M129 -168q-22 0 -22 22v48q0 22 22 22h55q22 0 22 -22v-48q0 -22 -22 -22h-55zM129 -283q-22 0 -22 22v48q0 22 22 22h55q22 0 22 -22v-48q0 -22 -22 -22h-55zM-154 -163q-22 0 -22 22v43q0 22 22 22h208q22 0 22 -22v-43q0 -22 -22 -22h-208zM-67 -255q-22 0 -22 22v89 q0 17 6 19.5t16 2.5h32q10 0 16 -2.5t6 -19.5v-89q0 -22 -22 -22h-32z" glyph-name="uni05B3" unicode="ֳ"/>
<glyph d="M-27 -168q-22 0 -22 22v48q0 22 22 22h55q22 0 22 -22v-48q0 -22 -22 -22h-55z" glyph-name="uni05B4" unicode="ִ"/>
<glyph d="M-93 -168q-22 0 -22 22v48q0 22 22 22h54q22 0 22 -22v-48q0 -22 -22 -22h-54zM44 -168q-22 0 -22 22v48q0 22 22 22h54q22 0 22 -22v-48q0 -22 -22 -22h-54z" glyph-name="uni05B5" unicode="ֵ"/>
<glyph d="M44 -168q-22 0 -22 22v48q0 22 22 22h54q22 0 22 -22v-48q0 -22 -22 -22h-54zM-26 -284q-22 0 -22 22v48q0 22 22 22h54q22 0 22 -22v-48q0 -22 -22 -22h-54zM-93 -168q-22 0 -22 22v48q0 22 22 22h54q22 0 22 -22v-48q0 -22 -22 -22h-54z" glyph-name="uni05B6" unicode="ֶ"/>
<glyph d="M-102 -163q-22 0 -22 22v43q0 22 22 22h208q22 0 22 -22v-43q0 -22 -22 -22h-208z" glyph-name="uni05B7" unicode="ַ"/>
<glyph d="M128 -98q0 22 -22 22h-208q-22 0 -22 -22v-43q0 -22 22 -22h65v-70q0 -22 22 -22h32q22 0 22 22v70h67q22 0 22 22v43z" glyph-name="uni05B8" unicode="ָ"/>
<glyph d="M-25 533q-22 0 -22 22v48q0 22 22 22h55q22 0 22 -22v-48q0 -22 -22 -22h-55z" glyph-name="uni05B9" unicode="ֹ"/>
<glyph d="M-97 533q-22 0 -22 22v48q0 22 22 22h55q22 0 22 -22v-48q0 -22 -22 -22h-55z" glyph-name="uni05BA" unicode="ֺ"/>
<glyph d="M97 -291q-22 0 -22 22v48q0 22 22 22h55q22 0 22 -22v-48q0 -22 -22 -22h-55zM-116 -168q-22 0 -22 22v48q0 22 22 22h54q22 0 22 -22v-48q0 -22 -22 -22h-54zM-11 -230q-22 0 -22 22v48q0 22 22 22h54q22 0 22 -22v-48q0 -22 -22 -22h-54z" glyph-name="uni05BB" unicode="ֻ"/>
<glyph d="M13 273q-22 0 -22 22v48q0 22 22 22h48q22 0 22 -22v-48q0 -22 -22 -22h-48z" glyph-name="uni05BC" unicode="ּ"/>
<glyph d="M82 439q-22 0 -22 22v88q0 22 22 22h236q22 0 22 -22v-88q0 -22 -22 -22h-236z" glyph-name="uni05BE" horiz-adv-x="400" unicode="־"/>
<glyph d="M-112 508q-22 0 -22 22v48q0 22 22 22h48q22 0 22 -22v-48q0 -22 -22 -22h-48z" glyph-name="uni05C1" unicode="ׁ"/>
<glyph d="M64 508q-22 0 -22 22v48q0 22 22 22h48q22 0 22 -22v-48q0 -22 -22 -22h-48z" glyph-name="uni05C2" unicode="ׂ"/>
<glyph d="M-102 -163q-22 0 -22 22v43q0 22 22 22h208q22 0 22 -22v-43q0 -22 -22 -22h-208zM-15 -255q-22 0 -22 22v89q0 17 6 19.5t16 2.5h32q10 0 16 -2.5t6 -19.5v-89q0 -22 -22 -22h-32z" glyph-name="uni05C7" unicode="ׇ"/>
<glyph d="M451 0q-16 0 -24 8t-11 12l-360 515q-5 7 -5 15t6.5 14.5t15.5 6.5h111q16 0 24 -8t12 -13l363 -514q4 -5 4.5 -8.5t0.5 -6.5q0 -8 -6 -14.5t-15 -6.5h-116zM72 0q-10 0 -17.5 8t-7.5 18v127q0 56 10 98.5t36 77.5t75 69l77 -112q-24 -18 -36 -41.5t-15 -47.5t-3 -43 v-128q0 -11 -7.5 -18.5t-17.5 -7.5h-94zM443 194l-78 111q32 16 45.5 35.5t16.5 40.5t3 40v124q0 12 7.5 19t17.5 7h100q11 0 18 -8t7 -18v-128q0 -41 -10.5 -80t-40 -75t-86.5 -68z" glyph-name="uni05D0" horiz-adv-x="634" unicode="א"/>
<glyph d="M66 0q-10 0 -17.5 7.5t-7.5 17.5v81q0 11 7.5 18t17.5 7h254v190q0 57 -28.5 87.5t-89.5 30.5h-126q-10 0 -17.5 7.5t-7.5 17.5v82q0 11 7.5 18t17.5 7h131q90 0 152.5 -25t95.5 -80t33 -145v-190h35q11 0 18 -7t7 -18v-81q0 -10 -7 -17.5t-18 -7.5h-457z" glyph-name="uni05D1" horiz-adv-x="574" unicode="ב"/>
<glyph d="M312 0q-11 0 -18 7.5t-7 17.5l-61 300q-7 40 -17.5 65t-28.5 37.5t-50 12.5h-35q-10 0 -17.5 7t-7.5 18v87q0 11 7.5 18t17.5 7h39q83 0 134 -25.5t80.5 -80t46.5 -140.5l60 -306q2 -10 -6 -17.5t-19 -7.5h-118zM211 50q-39 -24 -72 -37.5t-68 -20.5q-10 -1 -17 2t-7 13 v103q0 17 21 25q7 3 26.5 9t42.5 14t39 16q23 11 43.5 30t35.5 41.5t22 45.5l58 -2q-5 -59 -20.5 -105.5t-41.5 -79.5t-62 -54z" glyph-name="uni05D2" horiz-adv-x="483" unicode="ג"/>
<glyph d="M288 0q-22 0 -22 22v307q0 64 13.5 98t43.5 34h160q-25 0 -40.5 -41.5t-15.5 -101.5v-296q0 -10 -9 -16t-19 -6h-111zM55 440q-11 0 -18.5 7t-7.5 18v81q0 11 7.5 18t18.5 7h445q10 0 17.5 -7t7.5 -18v-81q0 -10 -6.5 -17.5t-18.5 -7.5h-445z" glyph-name="uni05D3" horiz-adv-x="558" unicode="ד"/>
<glyph d="M454 0q-11 0 -18.5 7t-7.5 18v296q0 58 -28 88.5t-89 30.5h-225q-11 0 -18 7t-7 18v81q0 11 7 18t18 7h230q134 0 204.5 -60t70.5 -190v-296q0 -10 -7.5 -17.5t-17.5 -7.5h-112zM86 0q-11 0 -18 7.5t-7 17.5v296q0 10 7 17.5t18 7.5h112q11 0 18 -7.5t7 -17.5v-296 q0 -10 -7 -17.5t-18 -7.5h-112z" glyph-name="uni05D4" horiz-adv-x="646" unicode="ה"/>
<glyph d="M86 0q-11 0 -18 7.5t-7 17.5v521q0 11 7 18t18 7h118q11 0 18 -7t7 -18v-521q0 -10 -7 -17.5t-18 -7.5h-118z" glyph-name="uni05D5" horiz-adv-x="290" unicode="ו"/>
<glyph d="M141 0q-22 0 -22 22v307q0 64 13.5 98t42.5 34h161q-25 0 -40.5 -41.5t-15.5 -101.5v-296q0 -10 -9.5 -16t-19.5 -6h-110zM63 440q-10 0 -17.5 7t-7.5 18v81q0 11 7.5 18t17.5 7h289q11 0 18 -7t7 -18v-81q0 -10 -6.5 -17.5t-18.5 -7.5h-289z" glyph-name="uni05D6" horiz-adv-x="415" unicode="ז"/>
<glyph d="M86 0q-11 0 -18 7.5t-7 17.5v521q0 11 7 18t18 7h233q91 0 152 -24.5t92 -80t31 -145.5v-296q0 -10 -7 -17.5t-18 -7.5h-112q-11 0 -18 7t-7 18v296q0 58 -28.5 88.5t-89.5 30.5h-91v-415q0 -10 -7 -17.5t-18 -7.5h-112z" glyph-name="uni05D7" horiz-adv-x="649" unicode="ח"/>
<glyph d="M332 -10q-142 0 -209.5 66.5t-67.5 181.5v308q0 11 7.5 18t17.5 7h99q11 0 18 -7t7 -18v-303q0 -59 34.5 -87.5t92.5 -28.5t87.5 28t30.5 85v24v28.5v24.5q-1 58 -20.5 89.5t-55.5 31.5q-14 0 -30.5 -4t-26.5 -10q-11 -4 -21 1.5t-10 18.5v75q0 11 4 20.5t15 15.5 q14 9 36 14.5t61 5.5q74 0 119 -26t65.5 -78t21.5 -130v-31.5t0.5 -43t-0.5 -31.5q-3 -76 -32 -131t-88.5 -84.5t-154.5 -29.5z" glyph-name="uni05D8" horiz-adv-x="647" unicode="ט"/>
<glyph d="M82 236q-11 0 -18 7.5t-7 17.5v285q0 11 7 18t18 7h118q11 0 18 -7t7 -18v-285q0 -10 -7 -17.5t-18 -7.5h-118z" glyph-name="uni05D9" horiz-adv-x="282" unicode="י"/>
<glyph d="M337 321q0 58 -29 88.5t-90 30.5h-157q-11 0 -18 7t-7 18v81q0 11 7 18t18 7h163q90 0 151.5 -23.5t92.5 -77t31 -143.5v-426q0 -10 -7.5 -17.5t-17.5 -7.5h-112q-11 0 -18 7t-7 18v420z" glyph-name="uni05DA" horiz-adv-x="554" unicode="ך"/>
<glyph d="M81 0q-11 0 -18.5 7.5t-7.5 17.5v87q0 11 7.5 18t18.5 7h145q61 0 91 31t33 88q1 18 1 30t-1 29q-3 58 -33 88.5t-91 30.5h-145q-11 0 -18.5 7t-7.5 18v87q0 11 7.5 18t18.5 7h150q96 0 155 -31.5t88 -89t32 -135.5q1 -17 1 -29t-1 -30q-3 -77 -32 -135t-88 -89.5 t-155 -31.5h-150z" glyph-name="uni05DB" horiz-adv-x="547" unicode="כ"/>
<glyph d="M195 -12q-10 -3 -18.5 6t-8.5 19v97q0 9 7 18t18 13l32 13q28 12 51.5 30.5t37.5 50t14 80.5q0 43 -10 69t-33.5 38t-66.5 12h-23q-10 0 -17.5 7t-7.5 18v88q0 10 7.5 17t17.5 7h56q90 0 143.5 -28.5t77 -85t23.5 -138.5q0 -68 -21.5 -121t-58.5 -92.5t-83 -65.5t-97 -40 zM230 434h-169q-10 0 -17.5 7t-7.5 18v226q0 11 7.5 18t17.5 7h102q11 0 18.5 -7t7.5 -18v-114h42z" glyph-name="uni05DC" horiz-adv-x="535" unicode="ל"/>
<glyph d="M86 0q-11 0 -18 7.5t-7 17.5v521q0 11 7 18t18 7h224q88 0 148 -24.5t90 -78t30 -142.5v-300q0 -10 -7 -18t-19 -8h-466zM207 131h216v190q0 58 -28.5 88.5t-89.5 30.5h-98v-309z" glyph-name="uni05DD" horiz-adv-x="633" unicode="ם"/>
<glyph d="M364 434h-291q-11 0 -18 7t-7 18v87q0 11 7 18t18 7h316q66 0 118.5 -26t83 -80t30.5 -138v-302q0 -10 -7.5 -17.5t-18.5 -7.5h-271q-10 0 -17.5 7.5t-7.5 17.5v81q0 11 7.5 18t17.5 7h134v188q0 37 -12 63t-33 39t-49 13zM65 0q-10 0 -18 7.5t-6 18.5l106 445q2 10 9 17 t17 6l94 -1q11 0 19 -9t5 -20l-91 -438q-1 -11 -8.5 -18.5t-17.5 -7.5h-109z" glyph-name="uni05DE" horiz-adv-x="675" unicode="מ"/>
<glyph d="M86 -124q-11 0 -18 7.5t-7 17.5v645q0 11 7 18t18 7h112q11 0 18 -7t7 -18v-645q0 -10 -7 -17.5t-18 -7.5h-112z" glyph-name="uni05DF" horiz-adv-x="284" unicode="ן"/>
<glyph d="M63 0q-10 0 -17.5 7.5t-7.5 17.5v81q0 11 7.5 18t17.5 7h321v-108q0 -10 -7 -16.5t-18 -6.5h-296zM262 0q-11 0 -18 7.5t-7 17.5l-15 308q-1 37 -8 62.5t-24 38.5t-51 13h-50q-10 0 -17.5 7.5t-7.5 18.5v79q0 11 7.5 18t17.5 7h54q65 0 111 -14.5t75.5 -45t44.5 -77 t17 -109.5l14 -306q1 -10 -6.5 -17.5t-18.5 -7.5h-118z" glyph-name="uni05E0" horiz-adv-x="441" unicode="נ"/>
<glyph d="M324 -10q-137 0 -203 67t-66 184v305q0 11 7 18t18 7h254q100 0 158 -29t84.5 -83t29.5 -129q1 -10 1 -28.5v-37.5t-1 -29q-3 -76 -30.5 -131t-88.5 -84.5t-163 -29.5zM324 127q71 0 98 26.5t29 86.5q1 10 1 26.5v32.5t-1 26q-2 58 -30.5 86.5t-91.5 28.5h-125v-197 q0 -59 31.5 -87.5t88.5 -28.5z" glyph-name="uni05E1" horiz-adv-x="647" unicode="ס"/>
<glyph d="M64 -56q-11 -2 -19.5 5t-8.5 17v83q0 10 6.5 17.5t15.5 9.5l220 55q55 14 84.5 36t40 55t10.5 78v247q0 10 7.5 17t17.5 7h112q11 0 18.5 -7t7.5 -18v-294q0 -66 -31 -117t-88.5 -85.5t-139.5 -50.5zM193 24l-141 507q-2 8 -3.5 12t-1.5 8q0 8 6 14t14 6h123q19 0 23 -15 l125 -509z" glyph-name="uni05E2" horiz-adv-x="630" unicode="ע"/>
<glyph d="M180 434v-49q0 -24 5.5 -41.5t20.5 -22.5l28 -10q8 -3 12.5 -11.5t4.5 -18.5l1 -56q0 -11 -11.5 -17.5t-23.5 -5.5l-51 7q-33 6 -60 29t-42.5 63t-15.5 95v150q0 11 7 18t18 7h193q89 0 145.5 -31.5t85 -89t30.5 -135.5l1 -414q0 -10 -7.5 -17.5t-17.5 -7.5h-107 q-10 0 -17.5 7.5t-7.5 17.5v414q-1 58 -30.5 89.5t-89.5 30.5z" glyph-name="uni05E3" horiz-adv-x="583" unicode="ף"/>
<glyph d="M187 434v-40q2 -20 7.5 -33.5t18.5 -17.5l28 -10q8 -3 12.5 -11.5t4.5 -18.5l1 -49q0 -15 -13 -23t-32 -6l-41 6q-33 6 -60 28t-42.5 59.5t-15.5 87.5v140q1 11 7.5 18t17.5 7h200q90 0 147 -31.5t85 -89t31 -135.5q1 -15 1 -29.5t-1 -29.5q-3 -77 -31 -135t-85 -89.5 t-147 -31.5h-188q-11 0 -18 7.5t-7 17.5v87q0 11 7 18t18 7h183q52 0 85.5 31t36.5 88q1 15 1 29.5t-1 29.5q-2 58 -36 88.5t-86 30.5h-88z" glyph-name="uni05E4" horiz-adv-x="584" unicode="פ"/>
<glyph d="M300 -124q-13 0 -19.5 6.5t-10.5 14.5l-248 639l-3 9t-1 5q0 8 7 14.5t15 6.5h115q13 0 20 -6.5t11 -17.5l92 -238q43 11 66 43.5t23 86.5v106q0 12 7.5 19t17.5 7h100q10 0 17.5 -8t7.5 -18v-114q0 -69 -25 -120.5t-67.5 -86t-94.5 -52.5l101 -260q4 -12 4 -15 q0 -9 -6 -15t-15 -6h-114z" glyph-name="uni05E5" horiz-adv-x="548" unicode="ץ"/>
<glyph d="M84 0q-11 0 -18 7.5t-7 17.5v84q0 11 7 18t18 7h237l-292 401l-4 8t-2 8q0 9 6.5 14.5t15.5 5.5h117q14 0 21.5 -6.5t10.5 -11.5l303 -418q5 -7 9.5 -14.5t4.5 -18.5v-77q0 -10 -7.5 -17.5t-17.5 -7.5h-402zM403 236l-81 109q36 22 50 58.5t14 82.5v59q0 12 7.5 19 t18.5 7h99q11 0 18 -8t7 -18v-88q0 -70 -34 -128t-99 -93z" glyph-name="uni05E6" horiz-adv-x="585" unicode="צ"/>
<glyph d="M86 -191q-11 0 -18 7.5t-7 17.5v487q0 10 7 17.5t18 7.5h108q11 0 18 -7.5t7 -17.5v-487q0 -10 -7 -17.5t-18 -7.5h-108zM323 -12q-9 -3 -17.5 6t-8.5 19v97q0 9 7 18t18 13l32 13q28 12 51.5 30.5t37.5 50t14 80.5q0 43 -10 69t-34 38t-66 12h-261q-10 0 -17.5 7 t-7.5 18v88q0 10 7.5 17t17.5 7h294q90 0 143.5 -28.5t77 -85t23.5 -138.5q0 -68 -21.5 -121t-58.5 -92.5t-83 -65.5t-97 -40z" glyph-name="uni05E7" horiz-adv-x="664" unicode="ק"/>
<glyph d="M360 0q-11 0 -18.5 7t-7.5 18v296q0 58 -28 88.5t-89 30.5h-151q-10 0 -17.5 7t-7.5 18v81q0 11 7.5 18t17.5 7h156q90 0 151 -24t92.5 -77.5t31.5 -142.5v-302q0 -10 -7.5 -17.5t-17.5 -7.5h-112z" glyph-name="uni05E8" horiz-adv-x="552" unicode="ר"/>
<glyph d="M381 123q54 -1 94.5 20.5t63 59.5t22.5 85v259q0 10 7.5 17t18.5 7h99q11 0 18 -7t7 -18v-263q0 -68 -23 -122t-64 -92t-95.5 -58t-117.5 -19h-94q-81 0 -139.5 31.5t-89.5 84.5t-31 117v321q0 11 7.5 18t17.5 7h100q10 0 17.5 -7t7.5 -17l1 -250q0 -84 42.5 -129 t106.5 -45h24zM191 191v111q47 0 73 18t37 51t11 78v96q0 12 7 19t18 7h99q10 0 17.5 -8t7.5 -18v-98q0 -81 -31.5 -138.5t-91.5 -88t-147 -29.5z" glyph-name="uni05E9" horiz-adv-x="762" unicode="ש"/>
<glyph d="M106 440q-11 0 -18 7t-7 18v81q0 11 7 18t18 7h274q90 0 151 -25.5t92 -79.5t31 -140v-301q0 -10 -7 -17.5t-18 -7.5h-112q-11 0 -18 7t-7 18v296q0 58 -28.5 88.5t-89.5 30.5h-268zM230 509h45q27 0 37.5 -11t6.5 -23q-10 -32 -16 -60.5t-8 -58.5t-2 -67l7 -264 q0 -10 -7 -17.5t-18 -7.5l-207 1q-10 0 -17.5 7t-7.5 18v75q0 10 7.5 17.5t17.5 7.5l81 -1v162q0 33 2 62.5t7.5 60.5t16.5 65q5 14 16.5 24t38.5 10z" glyph-name="uni05EA" horiz-adv-x="709" unicode="ת"/>
<glyph d="M364 236q-11 0 -18 7.5t-7 17.5v285q0 11 7 18t18 7h118q11 0 18 -7t7 -18v-285q0 -10 -7 -17.5t-18 -7.5h-118zM82 236q-11 0 -18 7.5t-7 17.5v285q0 11 7 18t18 7h118q11 0 18 -7t7 -18v-285q0 -10 -7 -17.5t-18 -7.5h-118z" glyph-name="uni05F2" horiz-adv-x="564" unicode="ײ"/>
<glyph d="M61 349q-9 0 -14.5 6t-4.5 15l30 197q2 13 10.5 23.5t25.5 10.5h117q8 0 13.5 -6t5.5 -14q0 -6 -2 -11l-75 -193q-4 -10 -12 -19t-25 -9h-69z" glyph-name="uni05F3" horiz-adv-x="264" unicode="׳"/>
<glyph d="M281 349q-9 0 -14.5 6t-4.5 15l30 197q2 13 10.5 23.5t25.5 10.5h117q8 0 14 -6t6 -14q0 -6 -3 -11l-75 -193q-4 -10 -12 -19t-25 -9h-69zM61 349q-9 0 -14.5 6t-4.5 15l30 197q2 13 10.5 23.5t25.5 10.5h117q8 0 13.5 -6t5.5 -14q0 -6 -2 -11l-75 -193q-4 -10 -12 -19 t-25 -9h-69z" glyph-name="uni05F4" horiz-adv-x="485" unicode="״"/>
</font>
</defs>
</svg>
